<svg width="28" height="28" viewBox="0 0 28 28" fill="none" xmlns="http://www.w3.org/2000/svg">
<path fill-rule="evenodd" clip-rule="evenodd" d="M8.75 6.12476C8.75 5.1965 9.11875 4.30626 9.77513 3.64988C10.4315 2.9935 11.3217 2.62476 12.25 2.62476H15.75C16.6783 2.62476 17.5685 2.9935 18.2249 3.64988C18.8813 4.30626 19.25 5.1965 19.25 6.12476V6.36392C20.3385 6.46309 21.4165 6.59376 22.4863 6.75359C24.1827 7.00792 25.375 8.48376 25.375 10.1568V13.6953C25.375 15.1081 24.5187 16.4393 23.1163 16.9059C20.1761 17.8819 17.0979 18.3778 14 18.3748C10.815 18.3748 7.75017 17.8591 4.88367 16.9059C3.48133 16.4393 2.625 15.1081 2.625 13.6953V10.1568C2.625 8.48376 3.81733 7.00676 5.51367 6.75359C6.58851 6.59285 7.66773 6.4629 8.75 6.36392V6.12476ZM17.5 6.12476V6.22976C15.1688 6.08818 12.8312 6.08818 10.5 6.22976V6.12476C10.5 5.66063 10.6844 5.21551 11.0126 4.88732C11.3408 4.55913 11.7859 4.37476 12.25 4.37476H15.75C16.2141 4.37476 16.6592 4.55913 16.9874 4.88732C17.3156 5.21551 17.5 5.66063 17.5 6.12476ZM14 15.7498C14.2321 15.7498 14.4546 15.6576 14.6187 15.4935C14.7828 15.3294 14.875 15.1068 14.875 14.8748C14.875 14.6427 14.7828 14.4201 14.6187 14.256C14.4546 14.0919 14.2321 13.9998 14 13.9998C13.7679 13.9998 13.5454 14.0919 13.3813 14.256C13.2172 14.4201 13.125 14.6427 13.125 14.8748C13.125 15.1068 13.2172 15.3294 13.3813 15.4935C13.5454 15.6576 13.7679 15.7498 14 15.7498Z" fill="#959490"/>
<path d="M3.5 21.4663V18.2043C3.76579 18.3498 4.0442 18.4708 4.33183 18.566C7.44997 19.6013 10.7145 20.1276 14 20.1247C17.374 20.1247 20.6267 19.5787 23.6682 18.5672C23.9622 18.4692 24.2398 18.3467 24.5 18.2043V21.4663C24.5 23.1603 23.2785 24.649 21.5565 24.8765C19.0832 25.2055 16.5608 25.3747 14 25.3747C11.4729 25.3752 8.94862 25.2088 6.4435 24.8765C4.7215 24.649 3.5 23.1603 3.5 21.4663Z" fill="#959490"/>
</svg>
