<svg width="88" height="60" viewBox="0 0 88 60" fill="none" xmlns="http://www.w3.org/2000/svg">
<path d="M45.5048 4.44834e-05C38.871 -0.011136 30.5602 2.0852 22.3612 6.35241C14.1752 10.6196 7.68683 16.2099 3.87802 21.6696C0.067347 27.1108 -0.963119 32.1793 0.911472 35.7943C2.78793 39.3907 7.53217 41.4591 14.1827 41.4591C20.8332 41.4777 29.144 39.372 37.3244 35.1235C45.5234 30.8563 52.0081 25.2474 55.8094 19.8062C59.6294 14.3651 60.6356 9.2966 58.7722 5.68158C56.8902 2.0852 52.1571 4.44834e-05 45.5048 4.44834e-05ZM62.6295 13.098C61.9773 15.949 60.5611 18.8745 58.5673 21.7255C54.356 27.7444 47.48 33.6141 38.871 38.0863C30.2621 42.5771 21.5227 44.8318 14.1808 44.8318C10.7149 44.8318 7.50236 44.3101 4.79482 43.2107L6.76817 47.012C8.64649 50.627 13.3777 52.6954 20.0319 52.6954C26.6843 52.6954 34.9951 50.6084 43.1755 46.3412C51.3745 42.0926 57.8592 36.4838 61.6605 31.024C65.4619 25.5828 66.5054 20.5143 64.6233 16.9179L62.6295 13.098ZM67.9961 16.2285C70.0831 21.2038 68.4061 27.2599 64.4184 32.9433C60.8965 37.9931 55.5113 42.8939 48.8403 46.9934C50.9086 47.217 53.0702 47.3288 55.269 47.3288C64.4929 47.3288 72.841 45.3536 78.7294 42.279C84.6364 39.2043 87.8787 35.1794 87.8787 31.1171C87.8787 27.0549 84.6364 23.0299 78.7294 19.9553C75.7293 18.39 72.077 17.1043 67.9961 16.2285ZM87.8787 39.4838C85.978 41.7013 83.3693 43.6579 80.2946 45.2604C73.7727 48.6518 64.9774 50.6829 55.269 50.6829C51.3186 50.6829 47.5172 50.3475 43.9581 49.714C39.635 51.8942 35.2933 53.5153 31.1192 54.5775C31.3428 54.7079 31.5664 54.8197 31.8087 54.9502C37.6971 58.0248 46.0451 60 55.269 60C64.4929 60 72.841 58.0248 78.7294 54.9502C84.6364 51.8755 87.8787 47.8506 87.8787 43.7883V39.4838Z" fill="#B99745"/>
</svg>
