<svg width="43" height="53" viewBox="0 0 43 53" fill="none" xmlns="http://www.w3.org/2000/svg">
<path d="M7.04375 23.4427L0.525391 29.8201L4.9176 21.8026L13.5309 10.3257L18.8979 8.396L7.04375 23.4427Z" fill="#B59745"/>
<path d="M7.02253 34.292L0 41.1944L4.81746 32.7493L24.5743 6.3551L30.7064 4.1499L7.02253 34.292Z" fill="#B59745"/>
<path d="M12.5 38.1232L2.61963 48.6088L10.1549 36.4851L35.8095 2.31512L42.3598 0L12.5 38.1232Z" fill="#B59745"/>
<path d="M42.4004 10.6847L17.9114 41.9089L7.91846 52.5446L15.5656 40.2685L42.4004 4.52197V10.6847Z" fill="#B59745"/>
<path d="M42.4002 21.2214L23.2548 45.6466L15.8882 53L21.0387 44.097L42.4002 15.5352V21.2214Z" fill="#B59745"/>
<path d="M42.4001 31.6928L33.5222 42.9808L26.9424 49.4031L31.3739 41.395L42.4001 26.6709V31.6928Z" fill="#B59745"/>
</svg>
