<svg width="22" height="24" viewBox="0 0 22 24" fill="none" xmlns="http://www.w3.org/2000/svg">
<path fill-rule="evenodd" clip-rule="evenodd" d="M3.12517 8.5C3.12517 6.41142 3.95486 4.40838 5.43171 2.93153C6.90855 1.45469 8.91159 0.625 11.0002 0.625C13.0888 0.625 15.0918 1.45469 16.5686 2.93153C18.0455 4.40838 18.8752 6.41142 18.8752 8.5V9.375C18.8752 11.8518 19.8085 14.1082 21.3462 15.815C21.442 15.9212 21.5103 16.0492 21.5451 16.1878C21.58 16.3265 21.5804 16.4716 21.5462 16.6104C21.512 16.7492 21.4443 16.8776 21.349 16.9842C21.2537 17.0908 21.1338 17.1725 20.9997 17.222C19.1983 17.887 17.313 18.377 15.3635 18.6722C15.4074 19.272 15.3271 19.8744 15.1278 20.4419C14.9284 21.0093 14.6141 21.5295 14.2047 21.97C13.7952 22.4105 13.2993 22.7619 12.7479 23.0022C12.1966 23.2425 11.6016 23.3665 11.0002 23.3665C10.3987 23.3665 9.80376 23.2425 9.2524 23.0022C8.70104 22.7619 8.20515 22.4105 7.79568 21.97C7.38621 21.5295 7.07197 21.0093 6.87259 20.4419C6.6732 19.8744 6.59295 19.272 6.63684 18.6722C4.71377 18.3807 2.82533 17.8945 1.00067 17.2208C0.866661 17.1714 0.746801 17.0898 0.65156 16.9834C0.556319 16.8769 0.488594 16.7487 0.4543 16.61C0.420006 16.4714 0.420185 16.3264 0.454822 16.1878C0.489459 16.0492 0.557501 15.9212 0.653005 15.815C2.24761 14.0495 3.12876 11.7541 3.12517 9.375V8.5ZM8.3775 18.8833C8.36258 19.2371 8.41936 19.5901 8.54444 19.9213C8.66951 20.2526 8.86029 20.555 9.1053 20.8106C9.3503 21.0662 9.64448 21.2695 9.97012 21.4084C10.2958 21.5474 10.6461 21.619 11.0002 21.619C11.3542 21.619 11.7046 21.5474 12.0302 21.4084C12.3559 21.2695 12.65 21.0662 12.895 20.8106C13.1401 20.555 13.3308 20.2526 13.4559 19.9213C13.581 19.5901 13.6378 19.2371 13.6228 18.8833C11.8779 19.0405 10.1224 19.0405 8.3775 18.8833Z" fill="#959490"/>
</svg>
