<svg width="28" height="28" viewBox="0 0 28 28" fill="none" xmlns="http://www.w3.org/2000/svg">
<path d="M13.3813 4.47989C13.5453 4.31603 13.7677 4.22399 13.9996 4.22399C14.2315 4.22399 14.4539 4.31603 14.6179 4.47989L24.7563 14.6182C24.8364 14.7042 24.933 14.7731 25.0403 14.821C25.1476 14.8688 25.2635 14.8945 25.381 14.8966C25.4985 14.8987 25.6152 14.877 25.7241 14.833C25.8331 14.789 25.9321 14.7235 26.0151 14.6404C26.0982 14.5573 26.1637 14.4584 26.2077 14.3494C26.2518 14.2405 26.2734 14.1238 26.2713 14.0063C26.2692 13.8888 26.2435 13.7729 26.1957 13.6656C26.1479 13.5583 26.0789 13.4617 25.9929 13.3816L15.8558 3.24322C15.612 2.99946 15.3226 2.80611 15.0042 2.67418C14.6857 2.54226 14.3443 2.47437 13.9996 2.47437C13.6549 2.47437 13.3135 2.54226 12.9951 2.67418C12.6766 2.80611 12.3872 2.99946 12.1434 3.24322L2.00511 13.3816C1.84579 13.5467 1.7577 13.7677 1.7598 13.9971C1.7619 14.2266 1.85403 14.446 2.01634 14.6081C2.17865 14.7703 2.39815 14.8622 2.62758 14.8641C2.857 14.866 3.07799 14.7777 3.24294 14.6182L13.3813 4.47989Z" fill="#B99745"/>
<path d="M14 6.33729L23.5188 15.8561C23.5538 15.8911 23.5888 15.9238 23.625 15.9565V23.1875C23.625 24.395 22.645 25.375 21.4375 25.375H17.5C17.2679 25.375 17.0454 25.2828 16.8813 25.1187C16.7172 24.9546 16.625 24.732 16.625 24.5V19.25C16.625 19.0179 16.5328 18.7953 16.3687 18.6312C16.2046 18.4671 15.9821 18.375 15.75 18.375H12.25C12.0179 18.375 11.7954 18.4671 11.6313 18.6312C11.4672 18.7953 11.375 19.0179 11.375 19.25V24.5C11.375 24.732 11.2828 24.9546 11.1187 25.1187C10.9546 25.2828 10.7321 25.375 10.5 25.375H6.5625C5.98234 25.375 5.42594 25.1445 5.0157 24.7343C4.60547 24.324 4.375 23.7676 4.375 23.1875V15.9565C4.4113 15.924 4.4467 15.8905 4.48117 15.8561L14 6.33496V6.33729Z" fill="#B99745"/>
</svg>
