<svg width="24" height="24" viewBox="0 0 24 24" fill="none" xmlns="http://www.w3.org/2000/svg">
<path fill-rule="evenodd" clip-rule="evenodd" d="M11.7993 0.625C10.7307 0.625 9.81717 1.3985 9.641 2.45317L9.53483 3.09367C9.50541 3.25444 9.43417 3.40464 9.3283 3.52915C9.22242 3.65367 9.08562 3.74812 8.93167 3.803C8.74316 3.87352 8.55716 3.95057 8.374 4.034C8.22629 4.10422 8.06268 4.13429 7.89965 4.12119C7.73663 4.10808 7.57993 4.05225 7.44533 3.95933L6.91683 3.58133C6.49542 3.28026 5.98086 3.13847 5.46472 3.1812C4.94857 3.22392 4.46433 3.4484 4.09817 3.81467L3.81467 4.09817C3.4484 4.46433 3.22392 4.94857 3.1812 5.46472C3.13847 5.98086 3.28026 6.49542 3.58133 6.91683L3.95933 7.44533C4.05225 7.57993 4.10808 7.73663 4.12119 7.89965C4.13429 8.06268 4.10422 8.22629 4.034 8.374C3.95056 8.55716 3.87352 8.74316 3.803 8.93167C3.74812 9.08562 3.65367 9.22242 3.52915 9.3283C3.40464 9.43417 3.25444 9.50541 3.09367 9.53483L2.452 9.64217C1.94149 9.72747 1.47776 9.99102 1.14324 10.386C0.808728 10.781 0.6251 11.2817 0.625 11.7993V12.2007C0.625 13.2693 1.3985 14.1828 2.45317 14.359L3.09367 14.4652C3.4215 14.52 3.68633 14.7568 3.803 15.0683C3.873 15.2573 3.95117 15.4428 4.034 15.626C4.10422 15.7737 4.13429 15.9373 4.12119 16.1003C4.10808 16.2634 4.05225 16.4201 3.95933 16.5547L3.58133 17.0832C3.28026 17.5046 3.13847 18.0191 3.1812 18.5353C3.22392 19.0514 3.4484 19.5357 3.81467 19.9018L4.09817 20.1853C4.85417 20.9413 6.0465 21.0405 6.91683 20.4187L7.44533 20.0407C7.57993 19.9477 7.73663 19.8919 7.89965 19.8788C8.06268 19.8657 8.22629 19.8958 8.374 19.966C8.55717 20.0488 8.74267 20.1258 8.93167 20.197C9.24317 20.3137 9.48 20.5785 9.53483 20.9063L9.64217 21.548C9.81717 22.6015 10.7295 23.375 11.7993 23.375H12.2007C13.2693 23.375 14.1828 22.6015 14.359 21.5468L14.4652 20.9063C14.4946 20.7456 14.5658 20.5954 14.6717 20.4708C14.7776 20.3463 14.9144 20.2519 15.0683 20.197C15.2568 20.1264 15.4428 20.0494 15.626 19.966C15.7737 19.8958 15.9373 19.8657 16.1003 19.8788C16.2634 19.8919 16.4201 19.9477 16.5547 20.0407L17.0832 20.4187C17.5046 20.7197 18.0191 20.8615 18.5353 20.8188C19.0514 20.7761 19.5357 20.5516 19.9018 20.1853L20.1853 19.9018C20.9413 19.1458 21.0405 17.9535 20.4187 17.0832L20.0407 16.5547C19.9477 16.4201 19.8919 16.2634 19.8788 16.1003C19.8657 15.9373 19.8958 15.7737 19.966 15.626C20.0488 15.4428 20.1258 15.2573 20.197 15.0683C20.3137 14.7568 20.5785 14.52 20.9063 14.4652L21.548 14.359C22.0587 14.2737 22.5226 14.0099 22.8571 13.6147C23.1917 13.2195 23.3752 12.7185 23.375 12.2007V11.7993C23.375 10.7307 22.6015 9.81717 21.5468 9.641L20.9063 9.53483C20.7456 9.50541 20.5954 9.43417 20.4708 9.3283C20.3463 9.22242 20.2519 9.08562 20.197 8.93167C20.1264 8.74318 20.0494 8.55718 19.966 8.374C19.8958 8.22629 19.8657 8.06268 19.8788 7.89965C19.8919 7.73663 19.9477 7.57993 20.0407 7.44533L20.4187 6.91683C20.7197 6.49542 20.8615 5.98086 20.8188 5.46472C20.7761 4.94857 20.5516 4.46433 20.1853 4.09817L19.9018 3.81467C19.5357 3.4484 19.0514 3.22392 18.5353 3.1812C18.0191 3.13847 17.5046 3.28026 17.0832 3.58133L16.5547 3.95933C16.4201 4.05225 16.2634 4.10808 16.1003 4.12119C15.9373 4.13429 15.7737 4.10422 15.626 4.034C15.4428 3.95058 15.2568 3.87353 15.0683 3.803C14.9144 3.74812 14.7776 3.65367 14.6717 3.52915C14.5658 3.40464 14.4946 3.25444 14.4652 3.09367L14.359 2.452C14.2737 1.94129 14.0099 1.47741 13.6147 1.14287C13.2195 0.808327 12.7185 0.624824 12.2007 0.625H11.7993ZM12 16.375C13.1603 16.375 14.2731 15.9141 15.0936 15.0936C15.9141 14.2731 16.375 13.1603 16.375 12C16.375 10.8397 15.9141 9.72688 15.0936 8.90641C14.2731 8.08594 13.1603 7.625 12 7.625C10.8397 7.625 9.72688 8.08594 8.90641 8.90641C8.08594 9.72688 7.625 10.8397 7.625 12C7.625 13.1603 8.08594 14.2731 8.90641 15.0936C9.72688 15.9141 10.8397 16.375 12 16.375Z" fill="#959490"/>
</svg>
