<svg width="8" height="8" viewBox="0 0 8 8" fill="none" xmlns="http://www.w3.org/2000/svg">
<path d="M4 0C3.20888 0 2.43552 0.234596 1.77772 0.674121C1.11992 1.11365 0.607234 1.73836 0.304484 2.46927C0.00173307 3.20017 -0.0774802 4.00444 0.0768607 4.78036C0.231202 5.55628 0.612164 6.26902 1.17157 6.82843C1.73098 7.38784 2.44372 7.7688 3.21964 7.92314C3.99556 8.07748 4.79983 7.99827 5.53073 7.69552C6.26164 7.39277 6.88635 6.88008 7.32588 6.22228C7.7654 5.56448 8 4.79112 8 4C7.99793 2.93977 7.57583 1.92356 6.82614 1.17386C6.07644 0.424166 5.06023 0.00207279 4 0ZM4 7.52941C3.30195 7.52941 2.61957 7.32241 2.03917 6.9346C1.45876 6.54678 1.00638 5.99556 0.73925 5.35065C0.472118 4.70573 0.402223 3.99608 0.538407 3.31145C0.67459 2.62681 1.01073 1.99793 1.50433 1.50433C1.99793 1.01073 2.62681 0.674588 3.31145 0.538405C3.99609 0.402222 4.70573 0.472116 5.35065 0.739249C5.99556 1.00638 6.54678 1.45875 6.9346 2.03916C7.32242 2.61957 7.52941 3.30195 7.52941 4C7.52837 4.93574 7.15619 5.83286 6.49452 6.49452C5.83286 7.15619 4.93574 7.52837 4 7.52941ZM2.66667 4C2.66667 4.27984 2.75472 4.55259 2.91834 4.77961C3.08197 5.00663 3.31288 5.17642 3.57836 5.26491C3.84385 5.3534 4.13044 5.35612 4.39756 5.27268C4.66467 5.18924 4.89876 5.02387 5.06667 4.8C5.10411 4.75008 5.15985 4.71707 5.22163 4.70825C5.2834 4.69942 5.34616 4.7155 5.39608 4.75294C5.446 4.79038 5.47901 4.84612 5.48783 4.9079C5.49666 4.96968 5.48058 5.03243 5.44314 5.08235C5.21597 5.38524 4.89926 5.60898 4.53787 5.72187C4.17648 5.83476 3.78873 5.83108 3.42955 5.71135C3.07037 5.59162 2.75796 5.36192 2.53658 5.05477C2.31521 4.74762 2.19608 4.37861 2.19608 4C2.19608 3.62139 2.31521 3.25237 2.53658 2.94523C2.75796 2.63808 3.07037 2.40838 3.42955 2.28865C3.78873 2.16892 4.17648 2.16524 4.53787 2.27813C4.89926 2.39102 5.21597 2.61476 5.44314 2.91765C5.46168 2.94237 5.47517 2.97049 5.48284 3.00043C5.4905 3.03036 5.4922 3.06151 5.48783 3.0921C5.48346 3.12269 5.47311 3.15212 5.45737 3.1787C5.44162 3.20529 5.4208 3.22852 5.39608 3.24706C5.37136 3.2656 5.34323 3.27909 5.3133 3.28676C5.28337 3.29442 5.25222 3.29612 5.22163 3.29175C5.19104 3.28738 5.16161 3.27703 5.13502 3.26129C5.10843 3.24554 5.08521 3.22472 5.06667 3.2C4.89876 2.97612 4.66467 2.81075 4.39756 2.72731C4.13044 2.64387 3.84385 2.64659 3.57836 2.73509C3.31288 2.82358 3.08197 2.99336 2.91834 3.22039C2.75472 3.44741 2.66667 3.72016 2.66667 4Z" fill="white"/>
</svg>
